<?xml version="1.0" encoding="UTF-8"?>
<svg id="Warstwa_1" xmlns="http://www.w3.org/2000/svg" xmlns:xlink="http://www.w3.org/1999/xlink" version="1.1" viewBox="0 0 104.16 98.46">
  <!-- Generator: Adobe Illustrator 29.5.1, SVG Export Plug-In . SVG Version: 2.1.0 Build 141)  -->
  <defs>
    <style>
      .st0 {
        fill: #1c223b;
      }

      .st1 {
        fill: #151928;
      }

      .st2 {
        fill: url(#Gradient_bez_nazwy_7);
      }

      .st3 {
        fill: url(#Gradient_bez_nazwy_8);
      }

      .st4 {
        fill: #fff;
      }

      .st5 {
        fill: #0ea5e9;
      }

      .st6 {
        fill: url(#Gradient_bez_nazwy_73);
      }

      .st7 {
        fill: url(#Gradient_bez_nazwy_71);
      }

      .st8 {
        fill: url(#Gradient_bez_nazwy_72);
      }

      .st9 {
        fill: url(#Gradient_bez_nazwy_74);
      }

      .st10 {
        display: none;
      }

      .st11 {
        fill: url(#Gradient_bez_nazwy_209);
      }
    </style>
    <linearGradient id="Gradient_bez_nazwy_209" data-name="Gradient bez nazwy 209" x1="27.7" y1="50.77" x2="71.87" y2="96.62" gradientUnits="userSpaceOnUse">
      <stop offset="0" stop-color="#34c4ff"/>
      <stop offset=".95" stop-color="#0151fd"/>
    </linearGradient>
    <linearGradient id="Gradient_bez_nazwy_7" data-name="Gradient bez nazwy 7" x1="26.66" y1="31.88" x2="92.75" y2="31.88" gradientUnits="userSpaceOnUse">
      <stop offset="0" stop-color="#1c64f2"/>
      <stop offset="1" stop-color="#0092ff"/>
    </linearGradient>
    <linearGradient id="Gradient_bez_nazwy_71" data-name="Gradient bez nazwy 7" x1="65.7" y1="42.91" x2="79.81" y2="42.91" xlink:href="#Gradient_bez_nazwy_7"/>
    <linearGradient id="Gradient_bez_nazwy_72" data-name="Gradient bez nazwy 7" x1="62.43" y1="23.6" x2="79.79" y2="23.6" xlink:href="#Gradient_bez_nazwy_7"/>
    <linearGradient id="Gradient_bez_nazwy_73" data-name="Gradient bez nazwy 7" x1="39.26" y1="21.17" x2="52.84" y2="21.17" xlink:href="#Gradient_bez_nazwy_7"/>
    <linearGradient id="Gradient_bez_nazwy_74" data-name="Gradient bez nazwy 7" x1="39.25" y1="42.9" x2="52.84" y2="42.9" xlink:href="#Gradient_bez_nazwy_7"/>
    <linearGradient id="Gradient_bez_nazwy_8" data-name="Gradient bez nazwy 8" x1="49.99" y1="41.33" x2="69.68" y2="41.33" gradientUnits="userSpaceOnUse">
      <stop offset="0" stop-color="#1724c9"/>
      <stop offset="1" stop-color="#1c64f2"/>
    </linearGradient>
  </defs>
  <path class="st5" d="M0,75.57c3.36-2.06,15.07-8.64,18.51-10.54,6.81-3.76,13.9-4.26,21.25-1.57,6.01,2.19,12.16,3.99,18.57,4.42,4.37.29,8.78,0,13.17,0,1,0,2.04,0,3,.24,1.89.46,3.08,1.74,3.44,3.67.46,2.51-.44,4.61-2.65,5.73-1.75.89-3.78,1.63-5.71,1.69-7.57.21-15.16.1-22.74.15-.64,0-1.28.25-1.91.39v.52c2.42.53,4.81,1.22,7.24,1.57,6.08.89,12.2.83,18.32.36,3.53-.27,6.05-2.19,8.23-4.8,4.46-5.35,9.86-9.6,15.75-13.23,2.77-1.7,5.81-.72,6.57,1.85.52,1.75.14,3.36-1.09,4.7-1.53,1.67-3.17,3.25-4.68,4.93-7.4,8.25-15.92,15.09-25.52,20.64-4.06,2.35-8.27,2.59-12.55,1.63-6.87-1.54-13.66-3.48-20.5-5.15-3.27-.8-6.64-1.77-9.96-.68-2.39.78-4.58,2.17-6.85,3.31-1.41.7-2.77,1.54-4.23,2.14-1.63.68-2.47.31-3.4-1.17C10.99,94.34,3.18,81.02,0,75.55v.02h0Z"/>
  <g id="Obiekt_generatywny">
    <g id="Background" class="st10">
      <rect class="st4" x="-11.01" y="44.88" width="123.29" height="70.45"/>
    </g>
    <g>
      <path class="st11" d="M77.98,72.77l-.55,2.34c-.43.66-.88,1.39-1.51,1.88-5.07,3.93-22.48,1.48-29.36,2.2-.46.05-1.07.09-1.33.46-.06.08-.09.17-.18.23,1.47,1.09,3.26,1.29,5,1.61.69.12,1.85.46,2.57.55.18.02.3-.12.55-.09.07,0,.02.17.09.18.03,0-.02-.23.37-.18,7.45.82,18.72,2.08,24.36-3.72,4.54-4.67,11-11.82,17.11-14.36,3.42-1.42,6.56.45,6.01,4.31-.33.51-.43,1.15-.73,1.7-.97,1.72-4.76,5.26-6.33,6.88-6.6,6.81-19.2,18.21-28.21,21.05-6.02,1.9-20.51-3.18-27.06-4.77-3.84-.93-8.14-2.37-12.02-1.19-3.63,1.1-7.34,3.99-10.82,5.32-1.81.69-2.6.38-3.72-1.15-4.21-5.76-7.83-13.87-11.74-20.09-.08-.13-.27-.44-.46-.41l.14-.28c11.25-5.39,22.21-15.97,35.32-13.12.92.34,2.3.46,3.21,1.01,4.46,1.14,8.78,2.86,13.12,3.76.03,0,.43.27.46.28.06.01.03-.19.09-.18.25.05.63.32.92.37,1.31.21,3.05.27,4.4.37.07,0,.02.18.09.18s-.02-.2.18-.18c5.07.31,11.1-.36,15.87.18,2.58.29,4.17,2.33,4.17,4.86Z"/>
      <path class="st1" d="M0,75.52c.19-.02.37.28.46.41,3.91,6.22,7.53,14.33,11.74,20.09,1.11,1.53,1.91,1.84,3.72,1.15,3.49-1.33,7.19-4.22,10.82-5.32,3.88-1.17,8.18.26,12.02,1.19,6.55,1.59,21.04,6.67,27.06,4.77,9.01-2.84,21.61-14.24,28.21-21.05,1.57-1.62,5.36-5.16,6.33-6.88.31-.54.4-1.19.73-1.7-.25,1.76-1.1,2.55-2.2,3.81-7.21,8.19-17.19,17.44-26.65,22.89-6.61,3.81-8.82,4.27-16.42,2.75-6.21-1.24-22.71-6.95-27.8-5.96-4.21.82-8.64,4.75-12.48,5.87-1.5.44-2.62-.03-3.44-1.33L0,75.52Z"/>
      <path class="st0" d="M77.98,72.77c0,1.99-.79,3.73-2.52,4.77-5.64,3.39-21.84,1.25-28.99,1.83-.4.03-.85.17-1.24.28.26-.36.87-.41,1.33-.46,6.87-.72,24.29,1.73,29.36-2.2.63-.49,1.08-1.22,1.51-1.88l.55-2.34Z"/>
    </g>
  </g>
  <path class="st2" d="M87.9,7.73c0,17.18.01,34.37.02,51.55v4.49l4.7-2.49.13-.22c-.08-17.01-.01-37.35,0-54.34,0-4.92-1.72-6.66-6.68-6.66-17.75,0-35.52.06-53.28-.06-3.42-.02-6.16,2.18-6.13,6.15.13,17.08.05,34.17.05,51.26v1.2h4.74v-1.59c0-16.46-.01-32.92-.03-49.37,0-2.15.49-2.67,2.58-2.67h51.11c2.38,0,2.78.39,2.78,2.75h.01Z"/>
  <path class="st7" d="M73.93,51.49c.26-2.58.46-2.8,2.62-2.97v-3.07c-1.65,0-3.47,0-5.14,0,0,.1.01.13,0,.21-.08,2.89.27,2.58-2.79,2.58h-2.92v-2.79h3.03c.04-.9-.16-1.84.19-2.45.32-.55,1.25-.74,2.21-1.25,0-.9.07-2.19-.02-3.48-.08-1.17.27-1.67,1.52-1.58,1.35.1,2.7.02,4.3.02,0-1.41.05-2.79-.01-4.17-.06-1.17.56-1.33,1.52-1.36.98-.03,1.4.25,1.36,1.31-.07,1.74,0,3.48-.02,5.21-.01,1.17-.96,2.11-2.13,2.14s-2.22.03-3.33.04c-.04,0-.08.03-.23.1v2.51c1.33,0,2.67.03,4,0,1.46-.05,1.93.68,1.63,2.6-.34,2.17-.41,4.37-.03,6.53s-.14,3.03-1.81,3.01c-2.66-.04-5.31-.03-7.97,0-2.37,0-1.99.19-2.06-2.43-.01-.51.46-.66,1.22-.67,1.63,0,3.26-.03,4.87-.03h-.01Z"/>
  <path class="st5" d="M58.96,19.57c.96.36,2.3-.44,2.29,1.16,0,1.18-.29,1.62-1.56,1.74-4.26-.1-3.91.49-3.9-3.83v-3.18c0-1.28.86-1.37,1.87-1.39,1.09-.02,1.29.54,1.26,1.45-.04,1.29.04,2.7.04,4.05h0Z"/>
  <rect class="st5" x="44.47" y="45.52" width="3.15" height="3.15"/>
  <rect class="st5" x="44.48" y="19.57" width="3.15" height="3.15"/>
  <rect class="st5" x="71.18" y="19.57" width="3.15" height="3.15"/>
  <path class="st8" d="M79.79,26.41c-.16-3.56-.09-7.12,0-10.68.03-1.15-.46-1.64-1.54-1.63-4.82,0-9.65.01-14.47,0-.16,0-.62-.01-.96.29-.38.34-.38.92-.39,1.16,0,.3,0,.77.31,1.09.06.06.25.33,1.05.31.47-.01,1.12,0,1.48,0,.01.16,0,4.69.09,6.91.09,2.19,1.75,4.24,4.13,4.18.57,0,.88-.03,1.53,0,0,1.72.15,3.35.15,5.06h2.77v-4.84h4.09c1.15-.01,1.82-.45,1.76-1.83h0v-.02ZM77.17,25.33h-8.84v-8.31h8.84s0,8.31,0,8.31Z"/>
  <path class="st6" d="M52.82,16.38c0-1.31-1-2.27-2.28-2.28-3.14-.02-6.27,0-9.42,0-1.24,0-1.87.57-1.86,1.83,0,1.59,0,3.18,0,4.78s0,3.18,0,4.78c.02,1.48.98,2.69,2.43,2.72,2.7.07,5.41.08,8.1-.1,2.1-.14,2.98-1.2,3.02-3.33.05-2.8.04-5.6,0-8.41h0ZM49.9,25.3h-7.68v-8.31h7.68v8.31Z"/>
  <path class="st9" d="M52.8,42.56c-.04-1.96-1.37-3.13-3.35-3.23-.47-.02-.94-.05-1.54-.08,0-1.37,0-2.67,0-3.96.06-4.69,0-4.09-4-4.1h-.58c-4.63.03-3.98-.57-4.08,4.09-.03,1.24.51,1.59,1.62,1.62,1.2.03,1.33-.63,1.25-1.56-.03-.4.05-.82.08-1.18h2.79v5.45h-3.06c-1.72,0-2.64.87-2.66,2.61-.03,3.42,0,6.85,0,10.28,0,1.39.75,2.08,2.02,2.1,3.33.05,6.66.03,9.98,0,.94,0,1.56-.45,1.56-1.49,0-3.53.05-7.05-.03-10.57h0,0ZM49.88,52.08h-7.67v-9.17h7.67v9.17Z"/>
  <path class="st3" d="M62.73,43.69c2.02-2.33,4.05-4.64,6.08-6.96,1.51-1.74.94-5.54-.77-7-2.54-2.17-4.47-2.3-6.93-.15-.94.82-1.5.76-2.41-.03-2.34-2.04-4.7-1.82-6.94.3-2.34,2.23-2.18,5.73-.59,7.46,1.72,1.87,3.45,3.8,5.46,5.32,2.08,1.59,2.61,4.07,2.23,6.53-2.99.03-2.81-.15-2.8,3.22,0,.33.02.68,0,1.01-.05.85.34,1.24,1.2,1.24,2.03,0,4.05-.02,6.08,0,.72,0,1.08-.38,1.09-1.13.04-2.3.27-2.11-2.33-2.13,0-2.19-.03-4.4.03-6.61,0-.37.33-.77.6-1.07h0ZM60.98,41.31c-.3.27-1.24.32-1.53.07-2.04-1.76-4.04-3.56-5.93-5.47-1.2-1.22-1.07-2.84.09-4,1-1,2.2-.94,3.61.18.85.68,1.68,1.83,2.56,1.88.8.04,1.65-1.14,2.5-1.76,1.81-1.33,3.03-1.38,4.04-.09.37.47.67.85.67,1.82-.11.93-.58,1.87-1.22,2.58-1.5,1.68-3.13,3.27-4.79,4.79h0Z"/>
</svg>